<svg xmlns="http://www.w3.org/2000/svg" viewBox="0 0 100 100" fill="currentColor" role="img" aria-labelledby="title desc">
  <title id="title">Wald und Klima Ursern — wordmarks & marks</title>
  <desc id="desc">Optimized SVG without inline styles; color inherited from CSS via currentColor.</desc>

  <g id="wald">
    <path d="M33.55,74.15c-.67-.15-.83-.28-.83-.53,0-.32.26-.51.68-.51.46,0,.71.22.75.68h.58c-.06-.77-.55-1.13-1.35-1.13s-1.25.36-1.25.97c0,.7.59.82,1.26.97.49.11.8.21.8.54s-.3.52-.71.52c-.51,0-.84-.3-.87-.83h-.59c.03.81.58,1.28,1.46,1.28.81,0,1.3-.4,1.3-.99,0-.75-.79-.88-1.23-.98ZM40.54,75.28l-.85-2.55h-.46l-.85,2.55-.75-2.55h-.6l1.06,3.34h.54l.84-2.52.85,2.52h.54l1.06-3.34h-.6l-.75,2.55ZM44.18,73.19h.75v2.43h-.75v.46h2.09v-.46h-.75v-2.43h.75v-.46h-2.09v.46ZM50.19,74.15c-.67-.15-.83-.28-.83-.53,0-.32.26-.51.68-.51.46,0,.71.22.75.68h.58c-.06-.77-.55-1.13-1.35-1.13s-1.25.36-1.25.97c0,.7.59.82,1.26.97.49.11.8.21.8.54s-.3.52-.71.52c-.51,0-.84-.3-.87-.83h-.59c.03.81.58,1.28,1.46,1.28.81,0,1.3-.4,1.3-.99,0-.75-.79-.88-1.23-.98ZM55.28,74.15c-.67-.15-.83-.28-.83-.53,0-.32.26-.51.68-.51.46,0,.71.22.75.68h.58c-.06-.77-.55-1.13-1.35-1.13s-1.25.36-1.25.97c0,.7.59.82,1.26.97.49.11.8.21.8.54s-.3.52-.71.52c-.51,0-.84-.3-.87-.83h-.59c.03.81.58,1.28,1.46,1.28.81,0,1.3-.4,1.3-.99,0-.75-.79-.88-1.23-.98ZM62.3,72.73l-1.41,3.34h.62l.3-.74h1.56l.3.74h.62l-1.41-3.34h-.58ZM61.99,74.87l.6-1.48.6,1.48h-1.2ZM67.28,72.73h-.58v3.34h2.27v-.48h-1.69v-2.86ZM73.11,72.73h-1.61v3.34h.58v-1.34h1.03c.68,0,1.13-.42,1.13-1.01,0-.56-.45-.99-1.13-.99ZM73.05,74.27h-.97v-1.09h.97c.39,0,.61.25.61.53s-.22.55-.61.55ZM77.99,74.15c-.67-.15-.83-.28-.83-.53,0-.32.26-.51.68-.51.46,0,.71.22.75.68h.58c-.06-.77-.55-1.13-1.35-1.13s-1.25.36-1.25.97c0,.7.59.82,1.26.97.49.11.8.21.8.54s-.3.52-.71.52c-.51,0-.84-.3-.87-.83h-.59c.03.81.58,1.28,1.46,1.28.81,0,1.3-.4,1.3-.99,0-.75-.79-.88-1.23-.98Z"/>
  </g>

  <g id="Ursern">
    <path d="M22.84,61.86l-3.04,7.19h1.34l.65-1.59h3.36l.64,1.59h1.34l-3.03-7.19h-1.24ZM22.17,66.47l1.28-3.2,1.29,3.2h-2.58ZM33.68,67.06l-3.8-5.2h-1.14v7.19h1.23v-5.17l3.82,5.17h1.12v-7.19h-1.23v5.2ZM39.54,61.86h-2.41v7.19h2.41c2.35,0,3.81-1.51,3.81-3.61s-1.46-3.59-3.81-3.59ZM39.64,68.02h-1.27v-5.14h1.27c1.51,0,2.42,1.06,2.42,2.56s-.91,2.58-2.42,2.58ZM45.01,69.05h5.23v-1h-3.99v-2.16h3.73v-.98h-3.73v-2.07h3.99v-1h-5.23v7.19ZM58.01,63.87c0-1.16-.98-2.01-2.33-2.01h-3.58v7.19h1.24v-3.06h1.93l1.55,3.06h1.46l-1.82-3.17c.92-.27,1.54-1.03,1.54-2ZM55.57,65.01h-2.22v-2.18h2.22c.7,0,1.2.44,1.2,1.04,0,.66-.5,1.14-1.2,1.14ZM63.82,64.89l-2.61-3.03h-1.12v7.19h1.21v-5.3l2.43,2.79h.16l2.43-2.79v5.3h1.21v-7.19h-1.12l-2.61,3.03ZM72.09,61.86l-3.04,7.19h1.34l.65-1.59h3.36l.64,1.59h1.34l-3.03-7.19h-1.24ZM71.42,66.47l1.28-3.2,1.29,3.2h-2.58ZM76.35,62.89h2.35v6.16h1.24v-6.16h2.35v-1.03h-5.95v1.03ZM83.3,61.86v1.03h2.35v6.16h1.24v-6.16h2.35v-1.03h-5.95Z"/>
  </g>

  <g id="Klima">
    <path d="M9.15,66.76l-1.85,1.67s-.38.34-1.36.5c-.98.16-1.85.09-2.16.06-.3-.03-.45-.12.15-.3.6-.18,1.76-.52,2.57-1.25.81-.73,5.96-5.37,6.43-5.8.48-.43,1.86-1.63,2.51-2.09.66-.46,1.16-.76,2.24-.95,1.08-.2,1.14-.36,2.05-1.14.91-.78.91-.88,1.24-1.36.33-.48.53-.76.77-1.14.24-.38.56-.64,1.14-.71.58-.07,1.02-.12,1.1-.26.08-.14,1.82-3.25,1.82-3.25,0,0,.78-.89,1.41-.08.63.81.98,1.26.98,1.26,0,0,.17.21.59.39.41.18.79.39.98.59.19.2,1.31,1.4,1.31,1.4,0,0,.47.51.62.83.16.31.42.91.42.91,0,0,.05.1.21.05.15-.05,1.07-.42,1.51-.29.44.13,1.72.71,1.72.71,0,0,.07.03.12-.04.05-.07,1.8-2.6,1.93-2.8.13-.2.54-.53,1.33-.21.79.32,4.16,1.77,4.16,1.77,0,0,.23.13.41.3.18.17,2.65,2.62,2.65,2.62,0,0,.13.14.32,0,.2-.13,2.49-1.88,2.49-1.88,0,0,.33-.25.93-.12.6.14,1.54.36,1.69.39.14.03.54.09,1.02,0,.47-.1,1.35-.28.54.09-.81.36-.95.41-1.59.34-.63-.08-1.83-.26-1.83-.26,0,0-.22-.05-.42.13-.21.18-2.05,1.79-2.39,2.08-.34.29-.66.58-1.53-.23-.87-.81-2.41-2.19-2.59-2.37-.18-.18-.4-.28-.89-.46-.49-.18-3.12-1.15-3.22-1.2-.1-.04-.17-.04-.26.09-.09.14-1.37,2.02-1.76,2.57-.39.55-.55.82-1.52.36-.98-.46-1.24-.58-1.36-.64-.11-.06-.2-.1-.57.04-.37.14-.52.2-.85.31-.33.11-.92.3-1.3-.51-.38-.81-.56-1.21-.63-1.33-.07-.13-.17-.25-.74-.85-.57-.6-.77-.81-.87-.92-.1-.11-.18-.2-.51-.32-.33-.13-.78-.34-1-.59-.22-.25-.53-.67-.61-.76-.08-.09-.1-.14-.2.06-.09.2-1.01,1.84-1.32,2.39-.32.55-.38.68-1.09.77-.71.08-1.14.1-1.33.39-.19.29-.73,1.21-1.05,1.65-.32.44-.9.88-1.65,1.52-.76.64-.81.67-1.67.83-.86.16-1.56.22-2.06.64-.49.42-7.18,6.43-7.18,6.43"/>
    <path d="M91.89,60l-.68,4.43,5.34-.25.49-5.1-5.15.93ZM95.59,62.19l-1.11.11-.11,1.08-.97.07.13-1.07-1,.1.11-.89,1-.12.12-.98.92-.13-.11,1.01,1.12-.13-.1.95Z"/>
  </g>
</svg>
