<?xml version="1.0" encoding="UTF-8"?><svg xmlns="http://www.w3.org/2000/svg" version="1.1" viewBox="0 0 100 100">
  <g id="wald"> <path class="st0" d="M36.17,94.16l1.01.33c4.44,1.44,8.51,2.14,12.45,2.14.04,0,.09,0,.13,0,2.14,0,4.28-.2,6.36-.56,2.08-.36,4.17-.91,6.19-1.64l.97-.35-13.54-23.03-13.57,23.11ZM56.11,91.24c-2.13.43-4.27.65-6.37.65s-4.24-.22-6.36-.65l6.36-10.83,6.37,10.84Z"/>
  <path class="st0" d="M36.17,94.16l1.01.33c4.44,1.44,8.51,2.14,12.45,2.14.04,0,.09,0,.13,0,2.14,0,4.28-.2,6.36-.56,2.08-.36,4.17-.91,6.19-1.64l.97-.35-13.54-23.03-13.57,23.11ZM56.11,91.24c-2.13.43-4.27.65-6.37.65s-4.24-.22-6.36-.65l6.36-10.83,6.37,10.84Z"/></g>
  <g id="Ursern"><path class="st0" d="M88.54,65.17c-.92,2.18-1.99,4.26-3.18,6.19-1.19,1.93-2.54,3.76-4.01,5.45-1.47,1.69-3.1,3.28-4.85,4.73-1.54,1.27-3.2,2.47-4.96,3.56l-10.23-17.35h9.27l-12.99-22.79h9.34l-17.18-29.51-17.17,29.54h9.36l-13.03,22.8h9.16l-10.11,17.3c-1.77-1.08-3.45-2.28-5.01-3.58-1.78-1.48-3.45-3.13-4.98-4.91-1.52-1.77-2.9-3.68-4.1-5.65-1.19-1.98-2.24-4.09-3.11-6.27l-.32-.79-4.43,1.75.31.79c1.31,3.36,2.99,6.54,5.02,9.45,1.99,2.86,4.36,5.55,7.05,7.99,3.54,3.21,7.03,5.57,10.67,7.21l.7.32,16.55-28.32h-9.25l12.7-22.23,12.68,22.23h-9.4l16.76,28.41.72-.37c2.58-1.33,5.01-2.85,7.23-4.51,2.22-1.66,4.29-3.52,6.15-5.52,1.86-2,3.56-4.2,5.06-6.54,1.5-2.34,2.83-4.87,3.97-7.55l.34-.8-4.39-1.8-.33.78ZM40.81,40.24l8.93-15.36,8.95,15.38h-8.6v-.02s-9.28,0-9.28,0Z"/> </g>
  <g id="Klima"> <path class="st0" d="M8.65,57.47c-.43-2.15-.69-4.38-.76-6.62-.08-2.36.01-4.55.29-6.7l.11-.85-4.76-.6-.08.89c-.02.27-.05.54-.07.81-.06.64-.11,1.24-.16,1.85-.03.43-.06.87-.08,1.3-.01.19-.02.38-.03.57v.03s0,2.32,0,2.32v.07s.02.08.03.12c0,.02,0,.04.01.06.05,2.01.25,4.1.59,6.2.06.34.12.69.18,1.02.03.15.06.31.09.47l.16.86,4.66-.93-.17-.84Z"/>
  <path class="st0" d="M70.2,12.76c2.21,1.24,4.33,2.7,6.32,4.35l.66.54,3.03-3.64-.66-.55c-2.22-1.84-4.59-3.47-7.04-4.84-2.46-1.38-5.08-2.55-7.8-3.47l-.81-.28-1.52,4.49.81.28c2.44.83,4.8,1.89,7.01,3.13"/>
  <path class="st0" d="M86.3,28.86c1.16,2.07,2.17,4.3,2.99,6.62l.28.8,4.47-1.56-.28-.81c-.9-2.56-2.02-5.04-3.33-7.37-1.3-2.32-2.83-4.57-4.55-6.68l-.54-.66-3.67,2.99.54.66c1.57,1.93,2.9,3.9,4.09,6.01"/>
  <path class="st0" d="M21.78,18.13c1.79-1.6,3.71-3.05,5.71-4.31,2-1.26,4.14-2.36,6.36-3.28l.79-.33-1.78-4.34-.77.28c-1.85.67-4.71,2.17-7.65,4.03-1.37.86-2.62,1.72-3.62,2.48-1.13.86-1.9,1.56-2.29,2.09l-.41.56,3.03,3.38.64-.57Z"/>
   <path class="st0" d="M95.86,42.92l-.25-.62-4.46.6.11.85c.31,2.37.42,4.77.33,7.12-.09,2.34-.37,4.72-.86,7.07l-.17.83,4.49.95.25-.7c.57-1.59.88-5.32.99-8.28.05-1.45.17-6.29-.45-7.82"/>
  <path class="st0" d="M41.5,8.24c2.34-.46,4.72-.73,7.06-.79,2.34-.07,4.72.07,7.08.39l.84.12.67-4.69-.85-.12c-2.64-.36-5.29-.5-7.88-.43-2.62.07-5.26.37-7.85.88l-.84.17.93,4.65.84-.16Z"/>
  <path class="st0" d="M9.97,36.13c.71-2.13,1.59-4.21,2.62-6.17,1.02-1.95,2.22-3.86,3.55-5.66l.51-.69-3.8-2.83-.51.69c-1.49,2-2.82,4.12-3.96,6.3-1.14,2.18-2.12,4.49-2.91,6.87l-.27.81,4.5,1.49.27-.81Z"/></g>
</svg>
